<svg width="423" height="62" viewBox="0 0 423 62" fill="none" xmlns="http://www.w3.org/2000/svg">
<path fill-rule="evenodd" clip-rule="evenodd" d="M179.572 0H151.992V0.153599C152.398 0.268817 152.801 0.460881 153.207 0.654832C154.016 1.11571 154.758 1.77055 155.467 2.46186C156.478 3.46234 157.421 4.65675 158.298 5.81086C159.613 7.54105 160.928 9.34999 162.175 11.1589L176.741 31.8982L161.635 50.4446C160.051 52.4072 158.4 54.4465 156.646 56.217C155.567 57.3327 154.388 58.41 153.105 59.2185C152.296 59.7562 151.42 60.1421 150.509 60.4878V60.7182H170.301V60.6798C169.324 60.4878 168.345 60.1037 167.536 59.4489C166.491 58.6021 165.749 57.4479 165.749 55.9098C165.749 54.9861 165.851 54.0624 166.121 53.1772C166.39 52.2919 166.828 51.4451 167.3 50.7154C167.873 49.7917 168.481 48.9448 169.154 48.098L179.203 35.4009L187.867 47.6371C188.508 48.5589 189.181 49.5209 189.789 50.4446C190.16 51.0226 190.496 51.6371 190.8 52.2535C191.104 52.8315 191.373 53.4844 191.575 54.1392C191.745 54.7153 191.845 55.2933 191.845 55.9098C191.845 57.5247 191.239 58.9112 189.991 59.7177C189.181 60.2573 188.17 60.5646 187.159 60.7182V60.7567H214.739V60.5646C214.604 60.5262 214.47 60.4878 214.334 60.411C213.794 60.1806 213.255 59.8714 212.749 59.5257C212.11 59.0648 211.468 58.4869 210.929 57.9108C210.222 57.1791 209.58 56.3706 208.973 55.5622C208.333 54.7153 207.692 53.9088 207.052 53.0236L188.44 26.7038L201.084 11.2358C203.006 8.88913 205.062 6.34856 207.153 4.23238C208.232 3.15509 209.446 2.03939 210.761 1.26934C211.468 0.846877 212.21 0.539635 212.985 0.268871V0H193.228V0.0383851C194.173 0.230416 195.116 0.616402 195.925 1.2309C197.072 2.11616 197.779 3.38552 197.779 5.00242C197.779 6.42537 197.476 7.73501 196.836 8.96593C196.061 10.5425 194.812 12.1594 193.733 13.4671L185.978 23.2031L179.842 14.4676C178.831 13.0062 177.786 11.5046 176.843 10.0048C176.303 9.15793 175.83 8.2727 175.46 7.31063C175.156 6.54058 174.954 5.69562 174.954 4.84877C174.954 3.30868 175.526 1.96254 176.673 1.11569C177.414 0.499268 178.527 0.192031 179.572 0Z" fill="#C1A78C"/>
<path fill-rule="evenodd" clip-rule="evenodd" d="M92.8213 0.153599V0H66.9274V0.153599C67.7366 0.384036 68.5798 0.654797 69.3212 1.03886C70.2305 1.49973 71.0737 2.1546 71.681 3.15508C72.2545 4.11715 72.5242 5.19443 72.6243 6.34854C72.76 7.61786 72.76 8.92751 72.76 10.1968V40.5185C72.76 43.6736 73.0976 47.1743 74.2427 50.0989C75.2556 52.5992 76.8062 54.6386 78.7605 56.2555C81.1543 58.218 84.1215 59.4105 86.9547 60.1421C91.101 61.2194 95.5526 61.4883 99.8007 61.4883C102.936 61.4883 106.071 61.2962 109.174 60.795C111.702 60.3726 114.163 59.6794 116.523 58.5637C118.479 57.64 120.3 56.3323 121.784 54.6002C123.233 52.9084 124.21 50.9074 124.851 48.676C125.661 45.7897 125.863 42.4791 125.863 39.4412V10.12C125.863 8.81228 125.896 7.46426 126.032 6.19494C126.166 5.07924 126.47 3.96349 127.077 3.00142C127.683 2.07775 128.492 1.38456 129.437 0.962088C130.144 0.616433 130.92 0.384036 131.663 0.153599V0H110.421V0.153599C111.634 0.499254 112.983 0.962053 113.86 1.69369C114.805 2.46181 115.478 3.50073 115.782 4.81038C116.186 6.34855 116.186 8.54155 116.186 10.1584V40.0173C116.186 43.4028 116.018 47.6755 114.973 50.869C114.129 53.4844 112.647 55.6006 110.523 57.0639C107.959 58.8709 104.386 59.2185 101.453 59.2185C99.0915 59.2185 96.5298 58.9496 94.304 57.9492C92.4837 57.1023 90.8652 55.8714 89.6861 54.0625C88.5392 52.3304 87.7979 50.3294 87.4263 48.2132C87.0226 45.905 86.819 43.5181 86.819 41.133V10.1968C86.819 8.81229 86.8529 7.27221 87.0548 5.92607C87.2245 4.92559 87.5282 3.9251 88.0676 3.07825C88.6071 2.23139 89.3485 1.61689 90.2256 1.11569C91.101 0.693219 91.9781 0.384036 92.8213 0.153599Z" fill="#C1A78C"/>
<path fill-rule="evenodd" clip-rule="evenodd" d="M25.8938 0.153564H-1.52588e-05V0.307222C0.843151 0.539579 1.65239 0.80842 2.42769 1.19248C3.33872 1.65528 4.18019 2.30818 4.75361 3.27026C5.32703 4.23233 5.63072 5.34802 5.69858 6.46372C5.83261 7.73496 5.86654 9.04273 5.86654 10.3505V50.675C5.86654 51.9847 5.83261 53.3308 5.69858 54.6001C5.56286 55.7158 5.29312 56.8315 4.7197 57.7168C4.14628 58.7172 3.30477 59.372 2.35982 59.8329C1.61844 60.1805 0.809202 60.4494 0.0338963 60.6798V60.8334H49.4279L50.439 45.1349H45.5174C45.1119 46.5982 44.6742 48.0211 44.1687 49.444C43.5274 51.253 42.6503 53.0619 41.5051 54.5233C40.4262 55.8714 39.1453 56.8718 37.6609 57.5632C35.9423 58.3332 33.8844 58.4868 32.0301 58.4868H19.9934V10.2352C19.9934 8.92745 20.0273 7.57941 20.1952 6.27168C20.331 5.15598 20.6686 4.0403 21.3082 3.15504C21.9155 2.23137 22.7247 1.57848 23.668 1.1541C24.3771 0.808441 25.1525 0.577964 25.8938 0.345607V0.153564Z" fill="#C1A78C"/>
<path fill-rule="evenodd" clip-rule="evenodd" d="M261.066 0.153599V0H235.17V0.153599C235.98 0.384036 236.823 0.654818 237.564 1.00047C238.509 1.46135 239.352 2.11617 239.926 3.07825C240.497 4.04032 240.801 5.11763 240.869 6.23333C241.005 7.50265 241.037 8.81227 241.037 10.12V50.5598C241.037 51.8695 241.005 53.2156 240.869 54.4849C240.735 55.6006 240.465 56.7163 239.892 57.6016C239.318 58.6021 238.475 59.2569 237.498 59.7177C236.755 60.0653 235.98 60.2958 235.17 60.5262V60.6798H261.066V60.5262C260.493 60.3726 259.885 60.1805 259.346 59.9501C258.57 59.6409 257.795 59.2185 257.154 58.6021C256.58 58.026 256.109 57.3327 255.805 56.5243C255.468 55.639 255.334 54.6769 255.266 53.7148C255.198 52.6375 255.166 51.5987 255.166 50.5214V10.12C255.166 8.73546 255.198 7.19541 255.401 5.88768C255.569 4.8488 255.873 3.84828 256.412 3.00142C256.952 2.11616 257.727 1.49973 258.537 1.03886C259.312 0.693203 260.189 0.384036 261.066 0.153599Z" fill="#C1A78C"/>
<path fill-rule="evenodd" clip-rule="evenodd" d="M299.738 31.5526L311.639 60.8718H322.429L341.783 9.46514C342.592 7.6178 343.569 5.46322 344.716 3.88664C345.559 2.69413 346.57 1.69367 347.783 1.00044C348.391 0.654783 348.998 0.384001 349.671 0.153564H331.263C332.106 0.422408 332.881 0.80841 333.556 1.42291C336.893 4.38594 335.746 10.6192 334.128 14.3907L321.148 49.2136L306.65 14.0067C306.144 12.4282 305.605 10.7748 305.233 9.1195C304.997 8.0038 304.863 6.8881 304.863 5.73399C304.863 3.92506 305.537 2.38497 306.851 1.34608C307.527 0.808394 308.336 0.460851 309.179 0.192008H283.757C284.566 0.460851 285.341 0.808436 286.015 1.26931C287.06 2.00095 287.937 2.96298 288.612 4.1939C292.658 11.4661 296.333 23.1262 299.738 31.5526Z" fill="#C1A78C"/>
<path fill-rule="evenodd" clip-rule="evenodd" d="M405.775 29.1656L394.008 0.153564H382.95L363.698 51.2146C362.889 53.062 361.91 55.2165 360.765 56.7931C359.922 57.9875 358.911 58.988 357.696 59.6793C356.819 60.1805 355.876 60.5262 354.931 60.7566V60.8334H375.633C374.318 60.603 372.97 60.1421 371.925 59.2568C368.586 56.2938 369.733 50.0605 371.351 46.289L384.331 11.4661L398.83 46.675C399.335 48.2516 399.875 49.9069 400.246 51.5603C400.482 52.676 400.618 53.7936 400.618 54.9477C400.618 56.7547 399.942 58.2948 398.628 59.3337C397.617 60.1421 396.302 60.5646 395.019 60.795V60.8334H422.431V60.7182C421.386 60.4493 420.341 60.0269 419.464 59.4104C418.419 58.6788 417.542 57.7168 416.869 56.4859C412.856 49.2521 409.182 37.5938 405.775 29.1656Z" fill="#C1A78C"/>
</svg>
