<svg width="330" height="108" viewBox="0 0 330 108" fill="none" xmlns="http://www.w3.org/2000/svg">
<mask id="mask0_51_23" style="mask-type:luminance" maskUnits="userSpaceOnUse" x="0" y="0" width="330" height="108">
<path d="M329.123 0H0V107.537H329.123V0Z" fill="white"/>
</mask>
<g mask="url(#mask0_51_23)">
<path d="M57.98 22.8325C51.6069 22.8325 45.7778 25.446 41.4254 29.9779C37.073 25.446 31.3217 22.8325 24.9486 22.8325C11.2696 22.8325 0 35.2933 0 50.7192V69.3673C0 74.3351 3.80833 78.4312 8.31613 78.4312C12.9016 78.4312 16.6323 74.3351 16.6323 69.3673V50.7192C16.6323 45.6649 20.3629 41.3942 24.9486 41.3942C29.5341 41.3942 33.1093 45.6649 33.1093 50.7192V69.3673C33.1093 74.3351 36.8397 78.4312 41.4254 78.4312C46.0109 78.4312 49.6639 74.3351 49.6639 69.3673V50.7192C49.6639 45.6649 53.3945 41.3942 57.98 41.3942C62.5655 41.3942 66.2961 45.6649 66.2961 50.7192V69.3673C66.2961 74.3351 70.0267 78.4312 74.5345 78.4312C79.1202 78.4312 82.9285 74.3351 82.9285 69.3673V50.7192C82.9285 35.3817 71.659 22.8325 57.98 22.8325ZM41.4254 89.062C36.8397 89.062 33.187 93.158 33.187 98.3006C33.187 103.441 36.8397 107.537 41.4254 107.537C46.0109 107.537 49.6639 103.441 49.6639 98.3006C49.6639 93.158 46.0109 89.062 41.4254 89.062Z" fill="#C1A78C"/>
<path d="M98.5503 18.387C103.058 18.387 106.634 14.2045 106.634 9.23668C106.634 4.09601 103.058 0 98.5503 0C93.9647 0 90.3898 4.09601 90.3898 9.23668C90.3898 14.2045 93.9647 18.387 98.5503 18.387ZM98.5503 22.9189C93.9647 22.9189 90.3898 27.0149 90.3898 32.0692V69.3673C90.3898 74.3351 93.9647 78.4311 98.5503 78.4311C103.058 78.4311 106.634 74.3351 106.634 69.3673V32.0692C106.634 27.0149 103.058 22.9189 98.5503 22.9189Z" fill="#C1A78C"/>
<path d="M217.696 50.8921C217.542 35.4681 206.428 23.0072 192.749 23.0072C179.146 23.0072 167.955 35.4681 167.955 50.8921C167.955 66.2296 179.146 78.6923 192.749 78.6923C206.428 78.6923 217.542 66.2296 217.696 50.8921ZM192.749 60.3918C188.007 60.3918 184.199 56.2094 184.199 50.8921C184.199 45.4902 188.007 41.3077 192.749 41.3077C197.489 41.3077 201.454 45.4902 201.454 50.8921C201.454 56.2094 197.489 60.3918 192.749 60.3918Z" fill="#C1A78C"/>
<path d="M271.143 25.7072C267.957 22.1354 262.827 22.1354 259.485 25.7072L240.289 47.3203V9.41148C240.289 4.35723 236.713 0.174805 232.127 0.174805C227.541 0.174805 223.992 4.35723 223.992 9.41148V69.4557C223.992 71.9828 224.304 73.8128 226.401 75.9905C227.957 77.6458 230.055 78.6924 232.154 78.6924C234.251 78.6924 236.349 77.8205 237.905 75.9905L271.169 38.6923C274.329 35.207 274.329 29.2809 271.143 25.7072ZM265.392 60.3054C260.806 60.3054 257.154 64.3995 257.154 69.5421C257.154 74.5963 260.806 78.6924 265.392 78.6924C269.822 78.6924 273.552 74.5963 273.552 69.5421C273.552 64.3995 269.822 60.3054 265.392 60.3054Z" fill="#C1A78C"/>
<path d="M304.33 78.6923C318.009 78.6923 329.123 66.2296 329.123 50.8921V32.2439C329.123 27.1896 325.393 23.0072 320.807 23.0072C316.221 23.0072 312.569 27.1896 312.569 32.2439V50.8921C312.569 55.9482 308.916 60.1306 304.33 60.1306C299.745 60.1306 296.014 55.9482 296.014 50.8921V32.2439C296.014 27.1896 292.284 23.0072 287.776 23.0072C283.19 23.0072 279.46 27.1896 279.46 32.2439V50.8921C279.46 66.2296 290.651 78.6923 304.33 78.6923Z" fill="#C1A78C"/>
<path d="M137.256 22.9189C134.303 22.9189 131.427 23.4412 128.862 24.5742V9.32507C128.862 4.35724 125.131 0.174805 120.624 0.174805C116.116 0.174805 112.462 4.35724 112.462 9.32507V49.3251C112.462 49.8474 112.385 50.2834 112.385 50.8921V69.4557C112.385 74.5964 116.116 78.6924 120.702 78.6924C125.286 78.6924 128.94 74.5964 128.94 69.4557V50.8921C128.94 45.7514 132.747 41.4807 137.256 41.4807C141.842 41.4807 145.494 45.7514 145.494 50.8921V69.4557C145.494 74.5964 149.301 78.6924 153.887 78.6924C158.396 78.6924 162.127 74.5964 162.127 69.4557V50.8921C162.127 35.4682 151.012 22.9189 137.256 22.9189Z" fill="#C1A78C"/>
</g>
</svg>
