<svg width="294" height="73" viewBox="0 0 294 73" fill="none" xmlns="http://www.w3.org/2000/svg">
<mask id="mask0_51_14" style="mask-type:luminance" maskUnits="userSpaceOnUse" x="0" y="0" width="294" height="73">
<path d="M293.497 72.9717H0V-4.57764e-05H293.497V72.9717Z" fill="white"/>
</mask>
<g mask="url(#mask0_51_14)">
<path d="M142.727 71.1205H126.322V2.79346H142.727V71.1205Z" fill="#C1A78C"/>
<path d="M31.3174 70.5773C48.6218 70.5773 62.6521 54.7808 62.6521 35.2936C62.6521 15.8082 48.6218 0.0113525 31.3174 0.0113525C14.03 0.0113525 -0.00012207 15.7967 -0.00012207 35.284C-0.00012207 54.7713 14.03 70.5773 31.3174 70.5773ZM31.3174 52.0982C23.0724 52.0982 16.3882 44.5725 16.3882 35.284C16.3882 25.9935 23.0724 18.4678 31.3174 18.4678C39.5625 18.4678 46.2468 26.005 46.2468 35.284C46.2468 44.5725 39.5625 52.0982 31.3174 52.0982Z" fill="#C1A78C"/>
<path d="M112.971 52.6529H107.576C90.6106 52.6529 90.8142 35.1608 90.8482 33.976V2.79346H74.4598V33.6764C74.0357 54.8805 87.506 71.1205 107.576 71.1205H112.971V52.6529Z" fill="#C1A78C"/>
<path d="M277.108 2.78235V35.6486C277.108 54.7711 261.568 54.5272 260.516 54.4926C254.104 54.4926 247.012 47.9194 247.012 35.6486V2.78235H230.607V35.6486C230.607 55.8349 242.991 72.8604 260.245 72.9487C279.076 73.4595 293.496 58.2507 293.496 35.6486V2.78235H277.108Z" fill="#C1A78C"/>
<path d="M186.107 70.5771C203.395 70.5771 217.425 54.7806 217.425 35.2933C217.425 15.8079 203.395 0.0111084 186.107 0.0111084C168.803 0.0111084 154.773 15.7964 154.773 35.2837C154.773 54.771 168.803 70.5771 186.107 70.5771ZM186.107 52.0979C177.862 52.0979 171.178 44.5723 171.178 35.2837C171.178 25.9933 177.862 18.4676 186.107 18.4676C194.352 18.4676 201.036 25.9933 201.036 35.2837C201.036 44.5723 194.352 52.0979 186.107 52.0979Z" fill="#C1A78C"/>
</g>
</svg>
