<svg width="285" height="160" viewBox="0 0 285 160" fill="none" xmlns="http://www.w3.org/2000/svg">
<g filter="url(#filter0_d_51_67)">
<path fill-rule="evenodd" clip-rule="evenodd" d="M134.501 0C120.537 0 109.219 12.6779 109.219 28.3186C109.219 43.9597 120.537 56.6376 134.501 56.6376C148.465 56.6376 159.782 43.9597 159.782 28.3186C159.782 12.6779 148.465 0 134.501 0ZM204.848 107.941C203.93 85.7725 187.596 68.1153 167.578 68.1153C157.919 68.1153 149.116 72.2247 142.49 78.9727C142.279 79.1858 142.072 79.4009 141.865 79.6198C141.109 80.603 140.773 81.9319 140.988 83.2415C141.255 84.87 142.323 86.1854 143.743 86.6366C144.948 87.0207 146.225 86.725 147.192 85.882C147.354 85.711 147.516 85.5401 147.683 85.3712C152.937 80.0212 159.918 76.7624 167.578 76.7624C183.33 76.7624 196.205 90.5502 197.114 107.937H204.848V107.941ZM32.1383 117.88L4 69.4288V68.267H11.6054L35.6416 110.128L59.7779 68.267H67.3834V69.4288L39.1415 117.88V150.811H32.1367L32.1383 117.88ZM243.627 77.7014L225.113 124.782L221.391 134.504L217.694 143.875C216.737 146.343 215.726 148.736 214.666 151.055H205.992L240.032 68.025H247.327L280.531 151.055H272.498L264.304 130.552L262.146 124.795L243.627 77.7014ZM134.126 128.446C140.225 142.228 152.915 151.702 167.576 151.702C186.416 151.702 201.991 136.062 204.524 115.741H167.213C163.27 115.741 163.189 122.061 167.213 122.061H195.112C190.784 134.352 180.086 143.051 167.576 143.051C151.235 143.051 137.987 128.213 137.987 109.907C137.987 103.251 136.596 96.9564 134.124 91.3702C128.027 77.5881 115.337 68.1133 100.674 68.1133C80.0682 68.1133 63.3627 86.8248 63.3627 109.905C63.3627 132.987 80.0682 151.699 100.674 151.699C111.649 151.699 121.517 146.393 128.346 137.943C128.504 136.275 127.979 134.617 126.921 133.429C125.854 132.234 124.357 131.649 122.859 131.837C117.437 138.712 109.508 143.048 100.674 143.048C84.3332 143.048 71.0852 128.209 71.0852 109.903C71.0852 91.5968 84.3315 76.7605 100.674 76.7605C117.018 76.7605 130.265 91.5968 130.265 109.903C130.265 116.561 131.656 122.856 134.126 128.442V128.446ZM134.501 48.4417C124.578 48.4417 116.536 39.4328 116.536 28.3186C116.536 17.2042 124.578 8.19568 134.501 8.19568C144.424 8.19568 152.465 17.2042 152.465 28.3186C152.465 39.4328 144.424 48.4417 134.501 48.4417Z" fill="#C1A78C"/>
</g>
<defs>
<filter id="filter0_d_51_67" x="0" y="0" width="284.531" height="159.702" filterUnits="userSpaceOnUse" color-interpolation-filters="sRGB">
<feFlood flood-opacity="0" result="BackgroundImageFix"/>
<feColorMatrix in="SourceAlpha" type="matrix" values="0 0 0 0 0 0 0 0 0 0 0 0 0 0 0 0 0 0 127 0" result="hardAlpha"/>
<feOffset dy="4"/>
<feGaussianBlur stdDeviation="2"/>
<feComposite in2="hardAlpha" operator="out"/>
<feColorMatrix type="matrix" values="0 0 0 0 0 0 0 0 0 0 0 0 0 0 0 0 0 0 0.25 0"/>
<feBlend mode="normal" in2="BackgroundImageFix" result="effect1_dropShadow_51_67"/>
<feBlend mode="normal" in="SourceGraphic" in2="effect1_dropShadow_51_67" result="shape"/>
</filter>
</defs>
</svg>
