<svg width="267" height="62" viewBox="0 0 267 62" fill="none" xmlns="http://www.w3.org/2000/svg">
<mask id="mask0_51_56" style="mask-type:luminance" maskUnits="userSpaceOnUse" x="0" y="0" width="267" height="62">
<path d="M266.352 0H0V61.4499H266.352V0Z" fill="white"/>
</mask>
<g mask="url(#mask0_51_56)">
<path fill-rule="evenodd" clip-rule="evenodd" d="M95.522 21.0619L76.1343 61.2002H66.7933L95.522 0.906372L124.252 61.2002H114.911L95.522 21.0619Z" fill="#C1A78C"/>
<path d="M182.073 38.3659V11.3048L190.635 0V24.8181L182.073 38.3659ZM149.334 23.3663V61.4499H141.258V0L190.635 61.4499H179.404L149.334 23.3663Z" fill="#C1A78C"/>
<path d="M237.786 0.741211C241.743 0.741211 245.458 1.53819 248.949 3.12437C252.432 4.71822 255.464 6.88237 258.045 9.62457C260.616 12.3668 262.65 15.5852 264.135 19.2876C265.619 22.9919 266.359 26.9515 266.359 31.1781C266.359 35.349 265.619 39.2626 264.135 42.9439C262.65 46.6155 260.625 49.8262 258.045 52.5684C255.471 55.3087 252.439 57.4729 248.949 59.0668C245.458 60.6606 241.743 61.4499 237.786 61.4499C233.832 61.4499 230.122 60.6529 226.666 59.0668C223.21 57.4806 220.185 55.3087 217.612 52.5684C215.04 49.8262 213.007 46.6155 211.521 42.9439C210.037 39.2722 209.297 35.349 209.297 31.1781C209.297 26.9515 210.037 22.9919 211.521 19.2876C213.007 15.5852 215.033 12.3668 217.612 9.62457C220.185 6.88237 223.203 4.71822 226.666 3.12437C230.122 1.53819 233.832 0.741211 237.786 0.741211ZM237.786 52.9736C240.491 52.9736 243.056 52.4033 245.472 51.255C247.894 50.1066 249.996 48.5511 251.796 46.5828C253.589 44.6145 255.006 42.3101 256.053 39.662C257.093 37.0139 257.614 34.1853 257.614 31.1781C257.614 28.1709 257.093 25.3346 256.053 22.6558C255.013 19.9751 253.596 17.64 251.796 15.6467C249.996 13.6553 247.894 12.0845 245.472 10.9362C243.049 9.78782 240.491 9.21746 237.786 9.21746C235.084 9.21746 232.531 9.78782 230.135 10.9362C227.741 12.0845 225.646 13.6553 223.853 15.6467C222.06 17.64 220.643 19.9751 219.596 22.6558C218.556 25.3346 218.036 28.1709 218.036 31.1781C218.036 34.1853 218.556 37.0139 219.596 39.662C220.636 42.3101 222.053 44.6222 223.853 46.5828C225.646 48.5511 227.741 50.1066 230.135 51.255C232.531 52.4033 235.084 52.9736 237.786 52.9736Z" fill="#C1A78C"/>
<path d="M40.8146 38.3659V11.3048L49.3769 0V24.8181L40.8146 38.3659ZM8.07541 23.3663V61.4499H0V0L49.3769 61.4499H38.146L8.07541 23.3663Z" fill="#C1A78C"/>
</g>
</svg>
