<svg width="380" height="61" viewBox="0 0 380 61" fill="none" xmlns="http://www.w3.org/2000/svg">
<mask id="mask0_51_84" style="mask-type:luminance" maskUnits="userSpaceOnUse" x="0" y="0" width="380" height="61">
<path d="M379.131 0.519287H0.809326V60.0489H379.131V0.519287Z" fill="white"/>
</mask>
<g mask="url(#mask0_51_84)">
<path d="M276.713 56.2236C272.54 53.6734 269.231 50.1439 266.856 45.6216C264.464 41.0973 263.26 35.9951 263.26 30.2841C263.26 24.5904 264.464 19.4708 266.856 14.9466C269.231 10.4242 272.54 6.89472 276.713 4.34455C280.903 1.79438 285.603 0.519287 290.828 0.519287C295.239 0.519287 299.226 1.39301 302.771 3.15778C306.334 4.92062 309.303 7.43626 311.729 10.72L304.179 18.6163C300.736 14.1266 296.477 11.8741 291.405 11.8741C288.249 11.8741 285.45 12.6595 282.99 14.213C280.513 15.7685 278.579 17.9518 277.205 20.7459C275.848 23.5418 275.152 26.72 275.152 30.2841C275.152 33.8482 275.848 37.0263 277.205 39.8223C278.579 42.6163 280.513 44.7997 282.99 46.3551C285.45 47.9086 288.249 48.6941 291.405 48.6941C296.477 48.6941 300.752 46.4243 304.179 41.8655L311.729 49.7598C309.303 53.0973 306.317 55.6475 302.72 57.4104C299.141 59.1751 295.154 60.0488 290.743 60.0488C285.586 60.0488 280.903 58.7738 276.713 56.2236Z" fill="#C1A78C"/>
<path d="M236.336 1.51392H248.11V59.0713H236.336V1.51392Z" fill="#C1A78C"/>
<path d="M366.798 59.054H379.131L356.415 1.51392H344.794L322.146 59.054H334.208L337.363 50.3723L337.38 50.3358L338.687 46.7218H338.704L345.608 27.995L350.528 14.5797L353.769 23.4534L362.285 46.7218L363.252 49.3584L363.32 49.5331L366.798 59.054Z" fill="#C1A78C"/>
<path d="M151.12 59.4016H163.488L140.755 1.84619H129.133L106.485 59.4016H118.53L121.72 50.7046V50.6681L123.043 47.0694H123.06L129.965 28.3445L134.868 14.9119L138.108 23.7857L146.624 47.0694H146.641L147.592 49.6906L147.659 49.8827L151.12 59.4016Z" fill="#C1A78C"/>
<path d="M210.464 40.5559C213.806 38.914 216.385 36.5367 218.183 33.445C220.016 30.3533 220.898 26.6682 220.898 22.3879C220.898 18.1094 220.016 14.407 218.217 11.2789C216.436 8.1526 213.874 5.74263 210.549 4.047C207.241 2.35329 203.339 1.49683 198.826 1.49683H176.839V12.3965H188.613V12.3619H198.181C201.71 12.3619 204.391 13.2184 206.257 14.9467C208.089 16.6769 209.005 19.1579 209.005 22.3879C209.005 25.5679 208.089 28.0316 206.257 29.7945C204.408 31.5592 201.727 32.433 198.181 32.433H195.416H188.613H176.839V59.0715H188.613V43.035H198.843H199.437L209.243 59.0715H221.882L210.464 40.5559Z" fill="#C1A78C"/>
<path d="M0.809326 25.9172V59.054H12.583V36.6076H36.0968V25.9172H0.809326Z" fill="#C1A78C"/>
<path d="M39.2183 1.51392H0.809326V12.2042H39.2183V1.51392Z" fill="#C1A78C"/>
<path d="M66.1249 12.258H77.6103H92.9976V1.51392H54.368V12.258H66.1249Z" fill="#C1A78C"/>
<path d="M66.1249 48.6422V35.2443H89.8591V24.8342H77.6103H66.1249H54.368V59.4017H93.9478V48.6422H66.1249Z" fill="#C1A78C"/>
</g>
</svg>
