<svg width="462" height="147" viewBox="0 0 462 147" fill="none" xmlns="http://www.w3.org/2000/svg">
<path d="M75.3063 144.412C72.2016 144.923 69.0122 145.207 65.7888 145.207C30.5523 145.188 2 112.971 2 73.6045M2 73.6045C2 73.3952 2 73.8119 2 73.6045ZM2 73.6045C2 34.218 30.5523 2 65.7888 2C101.025 2 129.578 33.9146 129.578 73.301M129.578 73.301C129.578 73.5084 129.578 73.6986 129.578 73.9079M129.578 73.301V73.9079M129.578 73.9079C129.578 99.1849 117.804 121.389 100.075 134.038" stroke="#C1A78C" stroke-width="3" stroke-linecap="round" stroke-linejoin="round"/>
<path d="M67.6208 70.1709L97.7509 98.8622" stroke="#C1A78C" stroke-width="3" stroke-linecap="round" stroke-linejoin="round"/>
<path d="M73.3043 41.4238C73.3043 41.4238 84.1281 50.9044 97.7511 65.1838" stroke="#C1A78C" stroke-width="3" stroke-linecap="round" stroke-linejoin="round"/>
<path d="M127.898 70.1709L97.751 98.8622" stroke="#C1A78C" stroke-width="3" stroke-linecap="round" stroke-linejoin="round"/>
<path d="M122.198 41.4238C122.198 41.4238 111.374 50.9044 97.751 65.1838" stroke="#C1A78C" stroke-width="3" stroke-linecap="round" stroke-linejoin="round"/>
<path d="M120.671 2.75852C123.725 2.24656 126.846 2 130.019 2C165.238 2 193.808 33.9146 193.808 73.301M193.808 73.301C193.808 73.5084 193.808 73.6986 193.808 73.9079M193.808 73.301V73.9079M193.808 73.9079C193.808 113.274 165.255 145.207 130.019 145.207C94.7824 145.207 66.2301 112.99 66.2301 73.6045M66.2301 73.6045C66.2301 73.3952 66.2301 73.8119 66.2301 73.6045ZM66.2301 73.6045C66.2301 47.6246 78.6655 24.7364 97.2593 12.202" stroke="#C1A78C" stroke-width="3" stroke-linecap="round" stroke-linejoin="round"/>
<path d="M97.751 12.7898V133.793" stroke="#C1A78C" stroke-width="3" stroke-linecap="round" stroke-linejoin="round"/>
<path d="M264.942 31.0889L244.703 74.6664V99.4499H234.676V74.6664L214.352 31.0889H225.532L239.698 64.6347L253.864 31.0889H264.959H264.942Z" fill="#C1A78C"/>
<path d="M285.046 95.6764C280.262 92.6999 276.479 88.5271 273.696 83.179C270.914 77.8329 269.523 71.8204 269.523 65.1262C269.523 58.4339 270.914 52.4407 273.696 47.131C276.479 41.8214 280.262 37.6689 285.046 34.6916C289.83 31.7146 295.055 30.2166 300.756 30.2166C306.456 30.2166 311.766 31.7146 316.55 34.6916C321.334 37.6689 325.101 41.8214 327.866 47.131C330.614 52.4407 332.005 58.4532 332.005 65.1262C332.005 71.8012 330.631 77.8329 327.866 83.179C325.101 88.5271 321.334 92.6999 316.55 95.6764C311.766 98.6529 306.507 100.151 300.756 100.151C295.005 100.151 289.83 98.6529 285.046 95.6764ZM311.579 87.3135C314.752 85.2472 317.229 82.288 319.01 78.4589C320.792 74.6279 321.691 70.1709 321.691 65.1262C321.691 60.0835 320.792 55.6457 319.01 51.853C317.212 48.0412 314.735 45.1397 311.579 43.0926C308.407 41.0628 304.81 40.0393 300.756 40.0393C296.701 40.0393 293.104 41.0628 289.932 43.0926C286.76 45.1205 284.283 48.0412 282.501 51.853C280.703 55.6649 279.821 60.0835 279.821 65.1262C279.821 70.1709 280.72 74.6279 282.501 78.4589C284.283 82.288 286.776 85.2472 289.932 87.3135C293.087 89.3797 296.701 90.4052 300.756 90.4052C304.81 90.4052 308.407 89.3797 311.579 87.3135Z" fill="#C1A78C"/>
<path d="M386.124 50.7719C384.546 47.3595 382.341 44.7806 379.525 43.0542C376.708 41.3106 373.451 40.456 369.753 40.456C365.698 40.456 362.102 41.4796 358.929 43.5093C355.757 45.5391 353.28 48.4215 351.498 52.1565C349.7 55.8915 348.818 60.216 348.818 65.1454C348.818 70.0768 349.717 74.4186 351.498 78.1728C353.28 81.9481 355.774 84.8478 358.929 86.8776C362.085 88.9073 365.698 89.9309 369.753 89.9309C375.216 89.9309 379.643 88.2237 383.036 84.8113C386.446 81.397 388.516 76.771 389.28 70.9486H366.309V61.9981H400.019V70.7585C399.374 76.0682 397.694 80.9611 394.963 85.4181C392.232 89.8733 388.686 93.4392 384.309 96.0931C379.932 98.7489 375.08 100.076 369.736 100.076C363.985 100.076 358.742 98.578 353.975 95.5996C349.225 92.6231 345.459 88.4714 342.66 83.1618C339.877 77.8521 338.486 71.8396 338.486 65.1646C338.486 58.4896 339.877 52.4791 342.66 47.1694C345.442 41.8598 349.225 37.7069 354.009 34.7297C358.793 31.7524 364.019 30.2544 369.719 30.2544C376.233 30.2544 382.019 32.037 387.108 35.6209C392.181 39.1859 395.862 44.2678 398.152 50.8103H386.09L386.124 50.7719Z" fill="#C1A78C"/>
<path d="M446.757 85.493H421.14L416.746 99.469H406.279L428.198 30.9939H439.819L461.738 99.469H451.168L446.774 85.493H446.757ZM443.941 76.3523L434 44.5712L423.973 76.3523H443.958H443.941Z" fill="#C1A78C"/>
</svg>
