<svg width="280" height="127" viewBox="0 0 280 127" fill="none" xmlns="http://www.w3.org/2000/svg">
<mask id="mask0_51_5" style="mask-type:luminance" maskUnits="userSpaceOnUse" x="0" y="0" width="280" height="127">
<path d="M279.924 0H0V126.74H279.924V0Z" fill="white"/>
</mask>
<g mask="url(#mask0_51_5)">
<path fill-rule="evenodd" clip-rule="evenodd" d="M270.446 25.3218V97.809H279.924V25.3218H270.446ZM279.924 0H270.446V10.6669H279.924V0Z" fill="#C1A78C"/>
<path fill-rule="evenodd" clip-rule="evenodd" d="M177.891 97.809H187.56V61.5574V25.3218H177.891V35.1686C171.869 28.3578 163.542 24.1567 154.34 24.1567C135.98 24.1567 121.122 40.8949 121.122 61.5402C121.122 82.2007 135.996 98.9247 154.34 98.9247C161.238 98.9247 167.931 96.5608 173.546 92.0481L177.891 88.5531V97.809ZM130.789 61.5574C130.789 46.9189 141.333 35.0533 154.34 35.0533C167.347 35.0533 177.891 46.9189 177.891 61.5574C177.891 76.196 167.347 88.0596 154.34 88.0596C141.318 88.0596 130.789 76.196 130.789 61.5574Z" fill="#C1A78C"/>
<path fill-rule="evenodd" clip-rule="evenodd" d="M199.503 109.066C198.584 111.167 198.701 113.463 199.795 115.466C200.903 117.452 202.682 118.567 204.767 118.567H206.618H215.062H247.552C250.309 118.567 252.612 121.145 252.612 124.263C252.612 125.148 252.422 126.001 252.086 126.758H262.104C262.221 125.936 262.279 125.116 262.279 124.263C262.279 115.138 255.646 107.687 247.552 107.687H246.851H211.882C216.2 102.322 222.426 98.94 229.367 98.94C247.726 98.94 262.586 82.2007 262.586 61.5574C262.586 53.1214 260.107 45.3423 255.922 39.0897L262.586 34.7575L257.744 25.3382L248.732 31.1973C243.278 26.7823 236.585 24.173 229.353 24.173C210.993 24.173 196.134 40.9121 196.134 61.5574C196.134 75.0955 202.521 86.9438 212.088 93.5094C207.071 96.9544 202.915 101.861 200.115 107.687C199.91 108.131 199.707 108.59 199.503 109.066ZM229.382 88.0595C216.375 88.0595 205.831 76.1959 205.831 61.5574C205.831 46.9188 216.375 35.0533 229.382 35.0533C242.389 35.0533 252.933 46.9188 252.933 61.5574C252.933 76.1959 242.389 88.0595 229.382 88.0595Z" fill="#C1A78C"/>
<path fill-rule="evenodd" clip-rule="evenodd" d="M84.885 82.3006L118.905 38.7288V25.3218H68.2609V36.3995H106.67L68.2609 84.4667V96.6261C74.9095 92.5397 83.1206 91.8176 90.6158 95.4624C92.7297 96.4955 94.8876 97.2675 97.0609 97.809C101.1 98.8095 105.169 98.99 109.135 98.4158C110.17 98.268 111.206 98.0702 112.212 97.809C112.927 97.6285 113.627 97.4307 114.313 97.2176C115.872 96.7087 117.404 96.1019 118.892 95.3625V82.7423C116.484 84.5646 113.831 85.8935 111.045 86.7154C106.933 87.9117 102.529 87.9789 98.228 86.7154C96.9879 86.3544 95.7478 85.8781 94.5229 85.2867C91.3742 83.7274 88.1372 82.7595 84.885 82.3006Z" fill="#C1A78C"/>
<path fill-rule="evenodd" clip-rule="evenodd" d="M33.2194 24.6326C14.8733 24.6326 -3.05176e-05 41.3711 -3.05176e-05 62.0336C-3.05176e-05 82.6942 14.8733 99.4163 33.2194 99.4163C51.5773 99.4163 66.4371 82.677 66.4371 62.0336C66.4371 41.3884 51.5773 24.6326 33.2194 24.6326ZM9.6684 62.0336C9.6684 47.3951 20.2105 35.5295 33.2194 35.5295C46.2265 35.5295 56.7687 47.3951 56.7687 62.0336C56.7687 76.6702 46.2265 88.5358 33.2194 88.5358C20.2105 88.5358 9.6684 76.6702 9.6684 62.0336Z" fill="#C1A78C"/>
</g>
</svg>
