<svg width="211" height="67" viewBox="0 0 211 67" fill="none" xmlns="http://www.w3.org/2000/svg">
<g clip-path="url(#clip0_51_98)">
<path fill-rule="evenodd" clip-rule="evenodd" d="M94.6938 1.44017V66.12H104.534V7.32592H118.19C123.11 7.32592 127.979 10.4791 129.896 15.7349C130.422 17.1368 130.66 18.6442 130.66 20.1498C130.66 21.6572 130.388 23.1647 129.896 24.5646C127.979 29.8205 123.11 32.9736 118.19 32.9736H115.103V38.8612H121.94C129.048 38.8612 136.241 34.5521 139.21 27.0187C140.076 24.8449 140.517 22.4983 140.517 20.1152C140.517 17.7321 140.042 15.3855 139.21 13.2136C136.207 5.68023 129.048 1.36914 121.94 1.36914H94.6938V1.44017Z" fill="#C1A78C"/>
<path fill-rule="evenodd" clip-rule="evenodd" d="M204.221 30.8015H185.644V36.6892H204.221V30.8015ZM210.464 7.32569V1.43994H165.269V66.1198H210.498V60.234H185.678V61.1097H175.125V7.32569H210.464Z" fill="#C1A78C"/>
<path fill-rule="evenodd" clip-rule="evenodd" d="M32.9066 0.598877C26.4769 0.598877 20.0981 2.49037 14.5505 6.2753C9.47791 9.74337 5.27057 14.7535 2.69188 20.8504C1.02929 24.9157 0.130127 29.2595 0.130127 33.7453C0.130127 38.2292 1.02929 42.6095 2.69188 46.6383C5.23664 52.7353 9.47791 57.7108 14.5505 61.2153C20.0981 64.9984 26.4769 66.8918 32.9066 66.8918C39.3534 66.8918 45.7493 64.9984 51.263 61.2153C56.3356 57.7454 60.5599 52.7353 63.1216 46.6383C64.8181 42.5749 65.7003 38.2292 65.7003 33.7453C65.7003 29.2595 64.8012 24.8812 63.1216 20.8504C60.5768 14.7535 56.3356 9.77794 51.263 6.2753C45.7493 2.49037 39.3873 0.598877 32.9066 0.598877ZM32.9066 6.87059C45.885 6.87059 55.8775 19.2738 55.8775 33.7453C55.8775 48.2148 45.9189 60.6201 32.9066 60.6201C19.9453 60.6201 9.93601 48.2148 9.93601 33.7453C9.96994 19.2738 19.9453 6.87059 32.9066 6.87059Z" fill="#C1A78C"/>
</g>
<defs>
<clipPath id="clip0_51_98">
<rect width="211" height="67" fill="white"/>
</clipPath>
</defs>
</svg>
