<svg width="447" height="172" viewBox="0 0 447 172" fill="none" xmlns="http://www.w3.org/2000/svg">
<path fill-rule="evenodd" clip-rule="evenodd" d="M424.535 105.335V104.926C425.756 104.593 426.587 103.804 427.011 102.542C427.436 101.29 427.656 98.3351 427.656 93.6783V90.9899L420.565 80.3111C418.733 77.5727 417.375 75.6831 416.476 74.6423C415.577 73.6054 414.729 72.8142 413.914 72.2861V71.8848C413.999 71.8848 414.135 71.8944 414.339 71.904C416.561 72.023 418.156 72.0826 419.14 72.0826C420.361 72.0826 422.295 72.0134 424.908 71.8848H425.298V72.2861C424.568 72.4647 424.026 72.7374 423.686 73.0965C423.364 73.4517 423.177 73.928 423.177 74.5329C423.177 75.3413 423.89 76.7739 425.298 78.8171C425.315 78.8344 425.332 78.8497 425.349 78.8689L432.338 88.7432L433.865 86.2986C437.971 79.7868 440.024 75.9673 440.024 74.8324C440.024 74.2275 439.871 73.734 439.549 73.3346C439.226 72.9352 438.684 72.5838 437.92 72.2861L437.937 71.8867C439.006 71.9635 439.82 72.0249 440.363 72.0499C440.923 72.073 441.449 72.0845 441.924 72.0845C442.84 72.0845 444.214 72.0153 446.046 71.8867H446.182V72.2861C444.859 73.0888 443.162 74.8766 441.093 77.6495C439.023 80.4263 436.24 84.6663 432.763 90.3716V93.6803C432.763 98.2026 432.966 101.112 433.407 102.423C433.831 103.727 434.68 104.561 435.918 104.928V105.335C434.68 105.285 433.577 105.241 432.61 105.216C431.643 105.193 430.778 105.179 430.048 105.179C429.183 105.179 428.284 105.191 427.368 105.216C426.452 105.241 425.502 105.285 424.535 105.335ZM373.656 79.3375L375.726 72.0845H403.498L405.568 79.3375L405.11 79.4393C403.685 77.4306 402.141 75.8886 400.444 74.8152C398.748 73.7436 397.051 73.2079 395.338 73.2079C394.099 73.2079 393.251 73.5055 392.827 74.0931C392.403 74.6807 392.182 76.2016 392.182 78.6635V92.0557C392.182 97.2309 392.403 100.542 392.844 101.997C393.268 103.445 394.133 104.392 395.405 104.826V105.337C394.574 105.287 393.726 105.242 392.861 105.217C391.995 105.193 390.842 105.181 389.434 105.181C387.907 105.181 386.753 105.193 385.99 105.217C385.209 105.242 384.497 105.287 383.835 105.337V104.826C385.074 104.442 385.905 103.541 386.329 102.108C386.77 100.68 386.991 97.325 386.991 92.0557V78.6635C386.991 76.169 386.804 74.6366 386.397 74.0662C386.024 73.4978 385.243 73.2079 384.107 73.2079C382.308 73.2079 380.544 73.734 378.848 74.7998C377.134 75.8656 375.539 77.4306 374.063 79.4892L373.656 79.3375ZM360.847 93.6803V93.9798C360.847 98.3044 361.068 101.112 361.509 102.423C361.95 103.727 362.815 104.561 364.105 104.928V105.335C363.189 105.285 362.29 105.241 361.373 105.216C360.474 105.193 359.372 105.179 358.065 105.179C356.674 105.179 355.554 105.191 354.723 105.216C353.909 105.241 353.128 105.285 352.399 105.335L352.365 104.928C353.637 104.593 354.486 103.777 354.927 102.466C355.385 101.166 355.605 98.2352 355.605 93.6803V76.3745C355.605 75.2011 355.385 74.289 354.978 73.6572C354.553 73.0293 353.858 72.5665 352.891 72.2861V71.8867C353.824 71.9481 354.723 72 355.605 72.0326C356.487 72.0672 357.353 72.0864 358.218 72.0864C359.083 72.0864 359.948 72.0672 360.83 72.0326C361.713 72 362.629 71.9481 363.562 71.8867V72.2861C362.612 72.482 361.933 72.9179 361.492 73.5727C361.068 74.2276 360.847 75.1666 360.847 76.3745V93.6803ZM314.312 90.1143V91.1877C314.312 96.2592 314.584 99.6313 315.127 101.308C315.686 102.992 316.704 104.213 318.197 104.976L318.163 105.335C317.247 105.285 316.433 105.241 315.737 105.216C315.042 105.193 314.448 105.179 313.956 105.179C313.176 105.179 312.378 105.191 311.598 105.216C310.801 105.241 310.003 105.285 309.189 105.335L309.172 104.976C310.665 104.246 311.7 102.969 312.276 101.145C312.836 99.3317 313.125 95.6563 313.125 90.1143V78.8267C313.125 76.6798 312.904 75.1915 312.48 74.3735C312.039 73.5458 311.259 72.8891 310.105 72.3879V71.9789C310.461 71.9789 310.953 71.9981 311.598 72.0326C312.887 72.0653 313.752 72.0845 314.16 72.0845C315.059 72.0845 315.805 72.073 316.399 72.0653C316.993 72.0576 317.587 72.0499 318.163 72.0326C321.76 77.0562 328.173 84.5876 337.402 94.6347C337.588 94.8325 337.707 94.9746 337.809 95.0514V86.8536C337.809 81.1656 337.521 77.4978 336.978 75.8521C336.435 74.2103 335.4 73.0197 333.924 72.2861L333.941 71.9309C334.246 71.9481 334.687 71.9731 335.264 72.0096C336.706 72.0922 337.673 72.1363 338.182 72.1363C339.2 72.1363 340.744 72.0672 342.831 71.9328H342.949V72.288C341.456 73.0062 340.421 74.2544 339.845 76.0422C339.268 77.83 338.98 81.4325 338.98 86.8555V106.153H338.572C335.824 102.383 332.414 97.999 328.325 93.0005C324.237 88.0058 319.554 82.4983 314.312 76.4781V90.1143ZM296.295 93.6803V93.9798C296.295 98.3044 296.516 101.112 296.957 102.423C297.398 103.727 298.263 104.561 299.552 104.928V105.335C298.636 105.285 297.737 105.241 296.821 105.216C295.922 105.193 294.819 105.179 293.513 105.179C292.105 105.179 291.002 105.191 290.171 105.216C289.357 105.241 288.576 105.285 287.847 105.335L287.813 104.928C289.085 104.593 289.933 103.777 290.375 102.466C290.833 101.166 291.053 98.2352 291.053 93.6803V76.3745C291.053 75.2011 290.833 74.289 290.408 73.6572C290.001 73.0293 289.306 72.5665 288.339 72.2861V71.8867C289.272 71.9481 290.171 72 291.053 72.0326C291.935 72.0672 292.8 72.0864 293.666 72.0864C294.531 72.0864 295.396 72.0672 296.278 72.0326C297.161 72 298.077 71.9481 299.01 71.8867V72.2861C298.06 72.482 297.381 72.9179 296.94 73.5727C296.516 74.2276 296.295 75.1666 296.295 76.3745V93.6803ZM250.388 105.335L250.354 104.928C251.558 104.576 252.373 103.804 252.78 102.61C253.204 101.41 253.407 98.4388 253.407 93.688V76.6721C253.407 75.326 253.204 74.3197 252.78 73.6476C252.373 72.9755 251.728 72.5761 250.829 72.4397V72.0326C251.609 72.048 252.457 72.0557 253.39 72.0653C254.341 72.073 255.85 72.0845 257.92 72.0845H276.107L278.397 79.2837L278.143 79.4393C276.48 77.1983 274.512 75.6063 272.256 74.6615C269.982 73.7244 266.538 73.2559 261.941 73.2559C261.008 73.2559 260.312 73.2559 259.854 73.2636C259.396 73.2732 258.955 73.2924 258.565 73.3096V86.8939C258.802 86.8939 259.057 86.9035 259.345 86.9227C259.634 86.9381 259.803 86.9457 259.871 86.9457C259.905 86.9457 260.109 86.9534 260.448 86.9707C260.787 86.9861 261.093 86.9957 261.364 86.9957H265.334C267.76 86.9957 269.558 86.6462 270.763 85.9568C271.967 85.2674 272.883 84.1171 273.477 82.5021H273.8V92.7163H273.477C272.951 91.1013 272.052 89.9414 270.797 89.2348C269.541 88.5281 267.726 88.169 265.334 88.169H260.957C260.889 88.169 260.601 88.1767 260.075 88.2035C259.566 88.2304 259.057 88.2554 258.565 88.2727V93.688C258.565 98.2775 258.769 101.196 259.21 102.473C259.634 103.743 260.465 104.559 261.686 104.926V105.335C260.431 105.285 259.328 105.239 258.344 105.216C257.394 105.191 256.546 105.179 255.817 105.179C254.968 105.179 254.103 105.189 253.187 105.216C252.288 105.239 251.355 105.285 250.388 105.335ZM212.148 90.1143V91.1858C212.148 96.2573 212.437 99.6294 212.98 101.306C213.54 102.992 214.557 104.211 216.05 104.976L216.016 105.335C215.1 105.285 214.286 105.239 213.59 105.216C212.895 105.191 212.301 105.179 211.809 105.179C211.029 105.179 210.231 105.189 209.451 105.216C208.653 105.239 207.856 105.285 207.042 105.335L207.025 104.976C208.518 104.244 209.553 102.967 210.129 101.143C210.689 99.3298 210.978 95.6544 210.978 90.1123V78.8248C210.978 76.6779 210.757 75.1896 210.333 74.3716C209.892 73.5458 209.111 72.8872 207.958 72.386V71.9769C208.314 71.9769 208.806 71.9962 209.451 72.0307C210.74 72.0653 211.605 72.0826 212.013 72.0826C212.912 72.0826 213.658 72.073 214.252 72.0653C214.846 72.0557 215.439 72.048 216.016 72.0307C219.613 77.0542 226.026 84.5876 235.255 94.6347C235.441 94.8305 235.56 94.9726 235.662 95.0495V86.8516C235.662 81.1656 235.374 77.4959 234.831 75.8521C234.288 74.2103 233.253 73.0197 231.777 72.2861L231.794 71.9309C232.099 71.9462 232.54 71.9712 233.117 72.0077C234.559 72.0902 235.526 72.1344 236.035 72.1344C237.053 72.1344 238.597 72.0653 240.684 71.9309H240.802V72.2861C239.309 73.0043 238.275 74.2525 237.698 76.0403C237.121 77.8281 236.832 81.4306 236.832 86.8536V106.151H236.425C233.677 102.381 230.267 97.9971 226.178 93.0005C222.09 88.0058 217.408 82.4964 212.165 76.4762V90.1143H212.148ZM194.148 93.6783V93.9779C194.148 98.3025 194.369 101.11 194.81 102.422C195.251 103.725 196.116 104.561 197.406 104.926V105.335C196.489 105.285 195.59 105.239 194.674 105.216C193.775 105.191 192.672 105.179 191.366 105.179C189.958 105.179 188.855 105.189 188.024 105.216C187.209 105.239 186.429 105.285 185.7 105.335L185.666 104.926C186.938 104.593 187.786 103.775 188.227 102.466C188.685 101.164 188.906 98.2333 188.906 93.6783V76.3725C188.906 75.1992 188.685 74.2871 188.261 73.6553C187.854 73.0274 187.159 72.5665 186.192 72.2861V71.8848C187.125 71.9462 188.024 72 188.906 72.0326C189.788 72.0653 190.654 72.0845 191.519 72.0845C192.384 72.0845 193.249 72.0653 194.131 72.0326C195.014 72 195.93 71.9462 196.863 71.8848V72.2861C195.913 72.4801 195.234 72.9179 194.793 73.5708C194.369 74.2275 194.148 75.1647 194.148 76.3725V93.6783Z" fill="#023047"/>
<path fill-rule="evenodd" clip-rule="evenodd" d="M338.64 136.905L339.505 133.519L339.641 133.542C339.811 134.787 340.371 135.82 341.321 136.649C342.254 137.473 343.357 137.884 344.629 137.884C345.901 137.884 346.936 137.554 347.733 136.889C348.514 136.223 348.904 135.355 348.904 134.283C348.904 133.828 348.819 133.421 348.65 133.062C348.48 132.709 348.225 132.436 347.92 132.257C347.394 131.962 346.478 131.708 345.155 131.505C344.629 131.42 344.222 131.355 343.95 131.301C342.356 130.998 341.202 130.518 340.489 129.865C339.76 129.21 339.404 128.321 339.404 127.194C339.404 125.769 339.947 124.615 341.049 123.718C342.152 122.827 343.594 122.379 345.392 122.379C346.291 122.379 347.191 122.487 348.09 122.712C348.989 122.932 349.803 123.244 350.533 123.645L349.752 126.418L349.566 126.397C349.379 125.304 348.921 124.446 348.192 123.833C347.445 123.222 346.495 122.913 345.358 122.913C344.205 122.913 343.306 123.213 342.593 123.8C341.863 124.388 341.507 125.127 341.507 126.018C341.507 126.45 341.609 126.854 341.83 127.222C342.033 127.599 342.322 127.881 342.678 128.081C343.272 128.4 344.391 128.688 346.037 128.943C346.614 129.045 347.055 129.118 347.36 129.173C348.633 129.41 349.583 129.834 350.177 130.458C350.787 131.076 351.093 131.918 351.093 132.985C351.093 134.596 350.516 135.904 349.362 136.914C348.209 137.92 346.682 138.422 344.799 138.422C343.611 138.422 342.474 138.289 341.422 138.03C340.371 137.767 339.438 137.39 338.64 136.905ZM318.095 136.905L318.978 133.519L319.113 133.542C319.283 134.787 319.843 135.82 320.776 136.649C321.726 137.473 322.829 137.884 324.101 137.884C325.374 137.884 326.408 137.554 327.189 136.889C327.986 136.223 328.376 135.355 328.376 134.283C328.376 133.828 328.292 133.421 328.105 133.062C327.935 132.709 327.698 132.436 327.392 132.257C326.866 131.962 325.95 131.708 324.627 131.505C324.084 131.42 323.694 131.355 323.406 131.301C321.828 130.998 320.674 130.518 319.945 129.865C319.232 129.21 318.876 128.321 318.876 127.194C318.876 125.769 319.419 124.615 320.505 123.718C321.607 122.827 323.066 122.379 324.865 122.379C325.764 122.379 326.663 122.487 327.562 122.712C328.461 122.932 329.275 123.244 330.005 123.645L329.225 126.418L329.021 126.397C328.851 125.304 328.393 124.446 327.647 123.833C326.9 123.222 325.967 122.913 324.814 122.913C323.677 122.913 322.778 123.213 322.065 123.8C321.336 124.388 320.979 125.127 320.979 126.018C320.979 126.45 321.081 126.854 321.302 127.222C321.505 127.599 321.794 127.881 322.15 128.081C322.744 128.4 323.864 128.688 325.509 128.943C326.086 129.045 326.51 129.118 326.833 129.173C328.105 129.41 329.038 129.834 329.649 130.458C330.26 131.076 330.565 131.918 330.565 132.985C330.565 134.596 329.988 135.904 328.834 136.914C327.681 137.92 326.154 138.422 324.254 138.422C323.083 138.422 321.947 138.289 320.895 138.03C319.843 137.767 318.91 137.39 318.095 136.905ZM297.432 122.823C297.754 122.836 298.127 122.848 298.569 122.858C298.993 122.865 299.688 122.867 300.638 122.867L308.951 122.823L310.037 126.114L309.884 126.185C309.138 125.15 308.29 124.421 307.357 123.998C306.424 123.574 304.795 123.359 302.488 123.359H302.318C302.012 123.359 301.741 123.359 301.537 123.361C301.334 123.366 301.13 123.376 300.944 123.384V129.596C301.096 129.602 301.334 129.615 301.639 129.625C301.928 129.636 302.131 129.642 302.216 129.642H304.031C305.134 129.642 305.965 129.483 306.525 129.164C307.085 128.851 307.509 128.327 307.781 127.587H307.899V132.257H307.781C307.526 131.526 307.119 130.996 306.542 130.667C305.948 130.343 305.117 130.178 304.031 130.178H302.03C301.996 130.178 301.86 130.184 301.622 130.193C301.385 130.205 301.147 130.216 300.944 130.224V133.496C300.944 134.508 300.961 135.249 300.995 135.724C301.012 136.198 301.079 136.519 301.147 136.688C301.3 136.964 301.504 137.152 301.775 137.258C302.063 137.362 302.691 137.417 303.675 137.417C305.524 137.417 306.966 137.181 308.018 136.705C309.07 136.231 309.952 135.447 310.665 134.358L310.817 134.381L309.732 137.955H298.738C298.501 137.955 298.263 137.955 298.009 137.959C297.754 137.961 297.466 137.97 297.178 137.978V137.79C297.737 137.678 298.11 137.333 298.297 136.759C298.501 136.188 298.603 134.833 298.603 132.701V124.92C298.603 124.304 298.501 123.847 298.314 123.537C298.127 123.23 297.822 123.046 297.415 122.984V122.821L297.432 122.823ZM277.108 131.065V131.557C277.108 133.876 277.243 135.418 277.498 136.183C277.752 136.955 278.21 137.513 278.889 137.863V138.024C278.465 138.003 278.092 137.984 277.769 137.97C277.447 137.959 277.176 137.955 276.955 137.955C276.599 137.955 276.242 137.959 275.869 137.97C275.513 137.984 275.157 138.003 274.783 138.024L274.766 137.863C275.445 137.529 275.92 136.945 276.192 136.112C276.446 135.28 276.582 133.6 276.582 131.065V125.903C276.582 124.926 276.48 124.242 276.276 123.868C276.09 123.489 275.717 123.192 275.191 122.961V122.773C275.36 122.773 275.581 122.781 275.886 122.798C276.463 122.813 276.853 122.821 277.04 122.821C277.464 122.821 277.803 122.817 278.075 122.813C278.346 122.808 278.618 122.806 278.889 122.798C280.518 125.097 283.453 128.538 287.677 133.131C287.762 133.221 287.813 133.289 287.864 133.325V129.575C287.864 126.975 287.728 125.298 287.473 124.547C287.219 123.795 286.761 123.245 286.082 122.913L286.099 122.75C286.235 122.758 286.439 122.769 286.693 122.786C287.355 122.827 287.796 122.844 288.033 122.844C288.508 122.844 289.204 122.815 290.154 122.752H290.222V122.913C289.526 123.242 289.051 123.814 288.78 124.634C288.525 125.45 288.406 127.098 288.406 129.577V138.402H288.203C286.964 136.674 285.387 134.671 283.521 132.388C281.654 130.101 279.517 127.583 277.108 124.834V131.067V131.065ZM256.291 124.786C256.291 124.256 256.19 123.839 255.986 123.537C255.8 123.238 255.494 123.028 255.07 122.913V122.733C255.46 122.76 255.867 122.781 256.258 122.798C256.665 122.815 257.055 122.823 257.445 122.823C257.818 122.823 258.208 122.815 258.616 122.798C259.023 122.783 259.413 122.76 259.82 122.733V122.913C259.396 123.013 259.091 123.207 258.904 123.491C258.718 123.774 258.616 124.208 258.616 124.784V132.693C258.616 133.517 258.633 134.274 258.65 134.957C258.684 135.647 258.701 136.083 258.718 136.263C258.785 136.705 258.955 137.008 259.26 137.172C259.566 137.333 260.261 137.415 261.347 137.415C262.942 137.415 264.248 137.168 265.3 136.67C266.335 136.177 267.2 135.407 267.879 134.356L268.031 134.377L266.946 137.953H256.393C256.19 137.953 255.952 137.953 255.698 137.955C255.426 137.959 255.155 137.967 254.866 137.974V137.788C255.426 137.677 255.8 137.329 256.003 136.757C256.19 136.181 256.291 134.829 256.291 132.69V124.782V124.786ZM235.917 124.786C235.917 124.256 235.815 123.839 235.611 123.537C235.424 123.238 235.119 123.028 234.695 122.913V122.733C235.085 122.76 235.492 122.781 235.883 122.798C236.29 122.815 236.68 122.823 237.07 122.823C237.46 122.823 237.851 122.815 238.241 122.798C238.648 122.783 239.055 122.76 239.445 122.733V122.913C239.021 123.013 238.716 123.207 238.529 123.491C238.342 123.774 238.241 124.208 238.241 124.784V132.693C238.241 133.517 238.258 134.274 238.291 134.957C238.308 135.647 238.325 136.083 238.342 136.263C238.41 136.705 238.597 137.008 238.885 137.172C239.191 137.333 239.886 137.415 240.972 137.415C242.567 137.415 243.873 137.168 244.925 136.67C245.977 136.177 246.825 135.407 247.504 134.356L247.656 134.377L246.57 137.953H236.018C235.815 137.953 235.577 137.953 235.323 137.955C235.068 137.959 234.78 137.967 234.491 137.974V137.788C235.051 137.677 235.424 137.329 235.628 136.757C235.815 136.181 235.917 134.829 235.917 132.69V124.782V124.786ZM213.726 122.823C214.048 122.836 214.439 122.848 214.863 122.858C215.287 122.865 215.982 122.867 216.949 122.867L225.245 122.823L226.331 126.114L226.178 126.185C225.432 125.15 224.584 124.421 223.651 123.998C222.717 123.574 221.106 123.359 218.782 123.359H218.612C218.307 123.359 218.035 123.359 217.832 123.361C217.628 123.366 217.425 123.376 217.238 123.384V129.596C217.391 129.602 217.628 129.615 217.933 129.625C218.239 129.636 218.425 129.642 218.51 129.642H220.325C221.445 129.642 222.276 129.483 222.819 129.164C223.379 128.851 223.803 128.327 224.075 127.587H224.194V132.257H224.075C223.82 131.526 223.413 130.996 222.836 130.667C222.259 130.343 221.428 130.178 220.325 130.178H218.323C218.307 130.178 218.171 130.184 217.933 130.193C217.679 130.205 217.458 130.216 217.238 130.224V133.496C217.238 134.508 217.255 135.249 217.289 135.724C217.323 136.198 217.374 136.519 217.458 136.688C217.594 136.964 217.798 137.152 218.086 137.258C218.358 137.362 219.002 137.417 219.986 137.417C221.818 137.417 223.277 137.181 224.329 136.705C225.381 136.231 226.263 135.447 226.959 134.358L227.112 134.381L226.043 137.955H215.032C214.812 137.955 214.574 137.955 214.303 137.959C214.048 137.961 213.777 137.97 213.471 137.978V137.79C214.031 137.678 214.405 137.333 214.608 136.759C214.795 136.188 214.897 134.833 214.897 132.701V124.92C214.897 124.304 214.812 123.847 214.608 123.537C214.422 123.23 214.133 123.046 213.709 122.984L213.726 122.821V122.823ZM185.666 122.913L185.683 122.733C185.818 122.74 186.005 122.752 186.277 122.762C186.972 122.817 187.481 122.844 187.803 122.844C188.126 122.844 188.601 122.823 189.296 122.773C189.636 122.752 189.907 122.738 190.094 122.733V122.913C189.754 122.988 189.517 123.101 189.381 123.245C189.245 123.391 189.178 123.61 189.178 123.896C189.178 124.125 189.228 124.453 189.33 124.889C189.449 125.319 189.585 125.776 189.754 126.255L192.638 134.101L196.744 122.379H196.914L201.375 134.076L203.479 127.192C203.632 126.673 203.768 126.153 203.852 125.636C203.954 125.116 203.988 124.69 203.988 124.363C203.988 123.906 203.903 123.562 203.734 123.324C203.564 123.09 203.292 122.952 202.936 122.913V122.752C203.276 122.773 203.581 122.792 203.886 122.808C204.192 122.817 204.497 122.823 204.802 122.823C205.108 122.823 205.413 122.817 205.702 122.808C205.99 122.794 206.295 122.775 206.584 122.752V122.913C206.211 122.986 205.803 123.468 205.362 124.367C204.904 125.269 204.344 126.729 203.666 128.753L200.51 138.401H200.425L195.964 126.12L191.688 138.401H191.603L187.108 125.367C186.836 124.57 186.582 123.994 186.378 123.641C186.175 123.286 185.937 123.044 185.666 122.913Z" fill="#023047"/>
<path fill-rule="evenodd" clip-rule="evenodd" d="M70.3709 135.883C46.8403 144.167 28.1108 143.695 14.1994 134.464C-7.14269 116.747 32.7083 94.9228 70.3709 135.883ZM80.1428 32.9281C71.2531 25.5658 60.3615 21.7316 49.0289 22.1369C58.9874 27.0614 67.2832 32.8317 73.9165 39.4456C49.4359 74.652 58.4615 115.424 92.765 138.777C111.647 151.624 163.255 159.845 159.319 124.488C152.499 91.1225 108.916 118.324 93.3247 125.813L91.255 126.871C93.6811 129.44 96.4293 131.647 99.4152 133.435C115.362 126.237 148.224 109.465 152.38 126.016C156.011 140.432 131.276 143.161 112.427 140.615C72.5255 135.222 56.4256 77.8724 80.4143 46.8932C93.0194 63.6966 96.5821 85.0697 91.0685 111.013C106.235 85.5363 103.029 58.5041 86.4198 39.0837C92.6969 30.8359 102.503 24.6018 114.192 21.2828C97.0402 20.7756 87.1664 26.2016 80.1598 32.8874L80.1428 32.9281ZM89.2361 10.2665C89.2361 4.5976 85.1645 0 80.1428 0C75.1381 0 71.0665 4.5976 71.0665 10.2665C71.0665 15.9353 75.1381 20.5342 80.1428 20.5342C85.1645 20.5342 89.2361 15.9393 89.2361 10.2665ZM125.762 39.5472C130.478 53.7725 129.986 69.5478 124.371 83.3548C118.739 97.1638 108.475 107.856 95.8355 113.049C113.361 99.4835 122.674 75.9732 119.994 52.1648C113.937 53.0176 108.441 56.5704 104.725 62.0279C107.762 50.8822 115.736 42.3499 125.762 39.5472ZM35.2702 39.5472C30.5369 53.7725 31.0458 69.5478 36.6612 83.3548C42.2767 97.1638 52.5576 107.856 65.1967 113.049C47.6717 99.4835 38.3407 75.9732 41.0381 52.1648C47.0947 53.0176 52.5914 56.5704 56.3067 62.0279C53.27 50.8822 45.2966 42.3499 35.2702 39.5472ZM2.51043 58.819C3.57923 84.9852 22.8177 105.484 45.992 105.15C27.8733 99.689 15.8281 84.5992 10.3993 66.6328C16.3201 65.2041 23.7338 67.2511 29.2475 70.0721C22.5632 61.4998 12.5368 57.2751 2.51043 58.819ZM158.505 58.819C157.453 84.9852 138.215 105.484 115.04 105.15C133.159 99.689 145.204 84.5992 150.616 66.6328C144.712 65.2041 137.298 67.2511 131.785 70.0721C138.469 61.4998 148.495 57.2751 158.505 58.819ZM93.0023 171.526C90.5932 136.432 63.5849 115.343 32.2843 108.401C-7.38015 99.6026 -7.482 135.994 15.6754 147.098C32.5217 155.174 58.8008 149.659 76.0204 143.434C80.9233 151.706 82.5518 161.072 80.9231 171.526H93.0023Z" fill="#023047"/>
</svg>
